# xmcd
#
# Track frame offsets:
#	150
#	19337
#	37957
#	56585
#	74357
#	95515
#	114597
#	133517
#	148235
#	164782
#	185870
#	206855
#	226112
#	244557
#	260820
#
# Disc length: 3714 seconds
#
# Revision: 17
# Processed by: cddbd v1.5.2PL0 Copyright (c) Steve Scherf et al.
# Submitted via: EZCDAudioConverter 8.2.2.1
#
DISCID=e70e800f
DTITLE=LEANDRO and LEONARDO - UM SONHADOR [CD 7432157327-2) BMG RCA
DYEAR=1998
DGENRE=SERTANEJO
TTITLE0=DEU MEDO (BY GILMAR SINISTRO)
TTITLE1=SOLIDÃO POR PERTO (BY GILMAR SINISTRO)
TTITLE2=TÔ QUERENDO VOCÊ (BY GILMAR SINISTRO)
TTITLE3=DIA DE RODEIO (BY GILMAR SINISTRO)
TTITLE4=COPO DE VINHO (BY GILMAR SINISTRO)
TTITLE5=AMOR DIVIDIDO (BY GILMAR SINISTRO)
TTITLE6=NÃO ENTREGO (BY GILMAR SINISTRO)
TTITLE7=CUMADE E CUMPADE (BY GILMAR SINISTRO)
TTITLE8=TÔ DANDO O FORA (BY GILMAR SINISTRO)
TTITLE9=MACHUCANDO O CORAÇÃO (BY GILMAR SINISTRO)
TTITLE10=ABANDONADO (ABANDONADA) (BY GILMAR SINISTRO)
TTITLE11=VOU ONDE VOCÊ ESTIVER (BY GILMAR SINISTRO)
TTITLE12=AMOR DE NOVELA (BY GILMAR SINISTRO)
TTITLE13=PAIXÃO DE RODEIO (BY GILMAR SINISTRO)
TTITLE14=UM SONHADOR (BY GILMAR SINISTRO)
EXTD=
EXTT0=
EXTT1=
EXTT2=
EXTT3=
EXTT4=
EXTT5=
EXTT6=
EXTT7=
EXTT8=
EXTT9=
EXTT10=
EXTT11=
EXTT12=
EXTT13=
EXTT14=
PLAYORDER=
